# xmcd CD database file
#
# Track frame offsets:
#	150
#	14610
#	38361
#	52463
#	72847
#	96039
#	111959
#	136807
#	149116
#	174414
#	190585
#	210035
#	225952
#	246835
#	266901
#	304049
#	319332
#
# Disc length: 4529 seconds
#
# Revision: 0
# Processed by: cddbd v1.5.2PL0 Copyright (c) Steve Scherf et al.
# Submitted via: CDex 1.51
#
DISCID=ee11af11
DTITLE=Johnny Winter - (2009) Anthology (D1)
DYEAR=2009
DGENRE=Blues
TTITLE0=Rollin' And Tumblin'
TTITLE1=Be Careful With A Fool
TTITLE2=Country Girl
TTITLE3=I'm Yours And I'm Hers
TTITLE4=Highway 61 Revisited
TTITLE5=Hustled Down In Texas
TTITLE6=Memory Plan
TTITLE7=Slippin' And Slidin'
TTITLE8=Black Cat Bone (live)
TTITLE9=Look Up
TTITLE10=Prodigal Son
TTITLE11=Rock And Roll, Hoochie Koo
TTITLE12=Good Morning Little School Girl (live)
TTITLE13=Jumpin' Jack Flash (live)
TTITLE14=Mean Town Blues (live)
TTITLE15=Johnny B. Goode (live)
TTITLE16=All Tore Down
EXTD=YEAR: 2009
EXTT0=
EXTT1=
EXTT2=
EXTT3=
EXTT4=
EXTT5=
EXTT6=
EXTT7=
EXTT8=
EXTT9=
EXTT10=
EXTT11=
EXTT12=
EXTT13=
EXTT14=
EXTT15=
EXTT16=
PLAYORDER=
